<svg width="57" height="27" xmlns="http://www.w3.org/2000/svg" xmlns:svg="http://www.w3.org/2000/svg">
 <title>parking-white-22.svg</title>
 <g class="layer" display="inline">
  <title>parking</title>
  <rect fill="none" height="27" id="svg_1" width="27" x="0" y="0"/>
  <rect fill="#231f20" height="27" id="svg_2" rx="4" ry="4" width="27" x="0" y="0"/>
  <path d="m11.9,11c1.8,0 3.5,-1.8 3.5,-3.6s-1.7,-3.4 -3.5,-3.4l-5,0l0,7l5,0zm0.2,-11c4.1,0 7.9,3.3 7.9,7.5c0,4.1 -3.9,7.5 -8.1,7.5l-5,0l0,7l-3.9,0l0,-22l9.1,0z" fill="#ffffff" id="svg_3" transform="translate(2 2)"/>
 </g>
 <g class="layer" display="inline">
  <title>trailhead</title>
  <rect fill="#231f20" height="27" id="svg_4" rx="4" ry="4" width="27" x="30" y="0"/>
  <path d="m36.65667,5.88282c0.1,-0.3 -0.1,-0.5 -0.4,-0.6l-1.4,-0.3c-0.2,-0.1 -0.5,0.1 -0.6,0.4l-1.2,5c-0.1,0.2 0.1,0.5 0.4,0.6l1.4,0.3c0.3,0.1 0.6,-0.1 0.6,-0.3l1.2,-5.1z" fill="#ffffff" id="svg_5"/>
  <path d="m34.05667,22.68282l0,0.2c0,0.8 0.5,1.3 1.2,1.3c0.6,0 1,-0.4 1.2,-0.9l2.1,-8.7l2,8.6c0.1,0.5 0.6,0.9 1.2,0.9c0.7,0 1.2,-0.5 1.2,-1.2c0,-0.1 0,-0.2 0,-0.3l-2.8,-11.3l0.2,-1l0.2,0.8c0.2,0.5 0.6,0.6 0.6,0.6l2.8,0.7l0.2,0c0.5,0 0.8,-0.4 0.8,-0.8c0,-0.4 -0.3,-0.7 -0.6,-0.8l-2.4,-0.6l-0.7,-2.7c-0.4,-1.2 -2.2,-1.3 -2.2,-1.3c-0.7,0 -1.3,1.2 -1.3,1.2l-3.7,15.3z" fill="#ffffff" id="svg_6"/>
  <path d="m40.95667,5.18282l-0.8,0c-0.6,0 -1.1,-0.5 -1.1,-1.1l0,-0.8c0,-0.6 0.5,-1.1 1.1,-1.1l0.8,0c0.6,0 1.1,0.5 1.1,1.1l0,0.8c0,0.6 -0.5,1.1 -1.1,1.1z" fill="#ffffff" id="svg_7"/>
  <path d="m46.85667,7.18282l1.2,0l0,17l-1.2,0l0,-17z" fill="#ffffff" id="svg_8"/>
 </g>
</svg>
