<svg width="57" height="27.000000000000004" xmlns="http://www.w3.org/2000/svg" xmlns:svg="http://www.w3.org/2000/svg">
 <title>parking-white-22.svg</title>
 <g class="layer" display="inline">
  <title>parking</title>
  <rect fill="none" height="27" id="svg_1" width="27" x="0" y="0"/>
  <rect fill="#231f20" height="27" id="svg_2" rx="4" ry="4" width="27" x="0" y="0"/>
  <path d="m11.9,11c1.8,0 3.5,-1.8 3.5,-3.6s-1.7,-3.4 -3.5,-3.4l-5,0l0,7l5,0zm0.2,-11c4.1,0 7.9,3.3 7.9,7.5c0,4.1 -3.9,7.5 -8.1,7.5l-5,0l0,7l-3.9,0l0,-22l9.1,0z" fill="#ffffff" id="svg_3" transform="translate(2 2)"/>
 </g>
 <g class="layer" display="inline">
  <title>trailhead-information</title>
  <g id="svg_17">
   <rect fill="none" height="27" id="svg_9" width="27" x="30.00489" y="-0.01077"/>
   <rect fill="#231f20" height="27" id="svg_10" rx="4" ry="4" width="27" x="30.00489" y="-0.01077"/>
   <path d="m50.00489,1.98923l-7,0l-2,0l0,18l2,0l0,-11l7,0l0,11l2,0l0,-18l-2,0zm0,6l-7,0l0,-1l7,0l0,1zm0,-2l-7,0l0,-1l7,0l0,1zm0,-2l-7,0l0,-1l7,0l0,1z" fill="#ffffff" id="svg_11" transform="translate(2 2)"/>
   <path d="m35.60489,4.58923c0.8,0 1.4,-0.7 1.4,-1.5s-0.7,-1.5 -1.5,-1.5s-1.5,0.7 -1.5,1.5c0.1,0.8 0.8,1.5 1.6,1.5z" fill="#ffffff" id="svg_12" transform="translate(2 2)"/>
   <path d="m35.10489,6.78923c0,-0.2 -0.1,-0.4 -0.3,-0.5l-1.2,-0.3c-0.3,0 -0.5,0.1 -0.6,0.3l-1,4.3c0,0.2 0.1,0.5 0.3,0.5l1.2,0.3c0.3,0.1 0.5,-0.1 0.6,-0.3l1,-4.3z" fill="#ffffff" id="svg_13"/>
   <path d="m32.50489,21.08923c0,0.1 0,0.1 0,0.2c0,0.6 0.5,1 1,1s0.9,-0.3 1,-0.7l1.8,-7.4l1.7,7.4c0.1,0.5 0.5,0.8 1,0.8c0.6,0 1,-0.5 1,-1c0,-0.1 0,-0.2 0,-0.2l-2.3,-9.8l0.2,-0.9l0.1,0.7c0.1,0.4 0.5,0.5 0.5,0.5l2.5,0.6l0.1,0c0.4,0 0.7,-0.3 0.7,-0.7c0,-0.3 -0.2,-0.6 -0.5,-0.7l-2.1,-0.5l-0.6,-2.3c-0.2,-1.3 -1.5,-1.3 -1.5,-1.3c-1.2,0 -1.5,1.2 -1.5,1.2l-3.1,13.1z" fill="#ffffff" id="svg_14"/>
   <path d="m35.10489,6.78923c0,-0.2 -0.1,-0.4 -0.3,-0.5l-1.2,-0.3c-0.3,0 -0.5,0.1 -0.6,0.3l-1,4.3c0,0.2 0.1,0.5 0.3,0.5l1.2,0.3c0.3,0.1 0.5,-0.1 0.6,-0.3l1,-4.3z" fill="#ffffff" id="svg_15"/>
   <path d="m32.50489,21.08923c0,0.1 0,0.1 0,0.2c0,0.6 0.5,1 1,1s0.9,-0.3 1,-0.7l1.8,-7.4l1.7,7.4c0.1,0.5 0.5,0.8 1,0.8c0.6,0 1,-0.5 1,-1c0,-0.1 0,-0.2 0,-0.2l-2.3,-9.8l0.2,-0.9l0.1,0.7c0.1,0.4 0.5,0.5 0.5,0.5l2.5,0.6l0.1,0c0.4,0 0.7,-0.3 0.7,-0.7c0,-0.3 -0.2,-0.6 -0.5,-0.7l-2.1,-0.5l-0.6,-2.3c-0.2,-1.3 -1.5,-1.3 -1.5,-1.3c-1.2,0 -1.5,1.2 -1.5,1.2l-3.1,13.1z" fill="#ffffff" id="svg_16"/>
  </g>
 </g>
</svg>
